inDegrees=no
num_controls=7
num_derivatives=13
num_iterations=143
num_multipliers=7
num_parameters=0
num_slacks=7
num_states=26
objective=5.005370
objective_accelerations=0.372174
objective_balance=0.034204
objective_effort=0.176777
objective_height=4.399571
objective_ligament=0.022644
solver_duration=1596.135576
status=Solve_Succeeded
success=true
DataType=double
version=3
OpenSimVersion=4.4-2022-07-23-0e9fedc
endheader
time	/jointset/ground_pelvis/pelvis_tilt/value	/jointset/ground_pelvis/pelvis_tx/value	/jointset/ground_pelvis/pelvis_ty/value	/jointset/hip_l/hip_flexion_l/value	/jointset/hip_l/hip_adduction_l/value	/jointset/hip_l/hip_rotation_l/value	/jointset/back/lumbar_extension/value	/jointset/patellofemoral_l/patellar_flexion_l/value	/jointset/knee_l/knee_flexion_l/value	/jointset/knee_l/knee_adduction_l/value	/jointset/knee_l/knee_rotation_l/value	/jointset/ankle_l/ankle_angle_l/value	/jointset/subtalar_l/subtalar_angle_l/value	/jointset/ground_pelvis/pelvis_tilt/speed	/jointset/ground_pelvis/pelvis_tx/speed	/jointset/ground_pelvis/pelvis_ty/speed	/jointset/hip_l/hip_flexion_l/speed	/jointset/hip_l/hip_adduction_l/speed	/jointset/hip_l/hip_rotation_l/speed	/jointset/back/lumbar_extension/speed	/jointset/patellofemoral_l/patellar_flexion_l/speed	/jointset/knee_l/knee_flexion_l/speed	/jointset/knee_l/knee_adduction_l/speed	/jointset/knee_l/knee_rotation_l/speed	/jointset/ankle_l/ankle_angle_l/speed	/jointset/subtalar_l/subtalar_angle_l/speed	/forceset/tau_hip_flexion_l	/forceset/tau_hip_adduction_l	/forceset/tau_hip_rotation_l	/forceset/tau_knee_flexion_l	/forceset/tau_ankle_angle_l	/forceset/tau_subtalar_angle_l	/forceset/tau_lumbar_extension	lambda_cid13_p0	lambda_cid13_p1	lambda_cid13_p2	lambda_cid13_p3	lambda_cid13_p4	lambda_cid13_p5	lambda_cid14_p0	/jointset/ground_pelvis/pelvis_tilt/accel	/jointset/ground_pelvis/pelvis_tx/accel	/jointset/ground_pelvis/pelvis_ty/accel	/jointset/hip_l/hip_flexion_l/accel	/jointset/hip_l/hip_adduction_l/accel	/jointset/hip_l/hip_rotation_l/accel	/jointset/back/lumbar_extension/accel	/jointset/patellofemoral_l/patellar_flexion_l/accel	/jointset/knee_l/knee_flexion_l/accel	/jointset/knee_l/knee_adduction_l/accel	/jointset/knee_l/knee_rotation_l/accel	/jointset/ankle_l/ankle_angle_l/accel	/jointset/subtalar_l/subtalar_angle_l/accel	gamma_cid13_p0	gamma_cid13_p1	gamma_cid13_p2	gamma_cid13_p3	gamma_cid13_p4	gamma_cid13_p5	gamma_cid14_p0
1.5	-0.1624811495673722	0.08463803366745376	0.8194143143500725	0.6413541624041688	-0.4446908902539288	-0.2808015171995032	-0.196098114057696	0.6776279203798667	0.6776279203798412	-0.1722803746907101	-0.1582039902953268	0.2359748956566177	0.03386714522550307	0.1361679808052311	0.05364702638708897	0.2991273666198275	-1.215672579757092	0.2631047549499606	-0.6525410411767087	0.3513029189587665	-1.667490213586656	-1.66749021358666	-0.009002755963515779	0.08276242277535426	-0.7032883432584026	-0.09162924217576658	-0.07268042771144229	0.03856453885327835	-0.007045937149682855	-0.2066705608554833	-0.04478707722217014	0.02504209333134403	0.09768789905517421	-47.18314522308818	-7.634555142519427	6.615516449222836	3.894584021884659	-531.1522162349087	-70.09769736313275	-31.2214895988609	0.07395161474092402	0.1475602786935566	-0.3090709195412031	-0.5007652314494372	0.581421903927577	-0.1155277509558113	0.8175649615160879	-1.160050731525327	-1.16005073152541	0.02538596622490498	0.1378197782670401	-0.517858578886634	0.4360828572488795	9.054340163446354e-08	1.02363287034189e-06	-1.633306717107602e-07	2.081817895174884e-07	4.383305444841563e-08	5.621745236928384e-07	1.063967406652657e-07
1.51	-0.1611158876955222	0.08518180412648067	0.8223894812644984	0.6291740369408144	-0.4420313454196391	-0.2873330168533855	-0.1925447350870872	0.6608974889365523	0.6608974889365478	-0.1723692576340707	-0.1573711429562248	0.2289169866771498	0.03297230336222987	0.1368751611858859	0.05509715458499152	0.2958450513018707	-1.220175147931671	0.2687784485542936	-0.6536612307510734	0.3593140524505524	-1.678357636986212	-1.678357636986207	-0.008780190787887898	0.08378990105122207	-0.7081944487746192	-0.08732615445120739	-0.07009241823687061	0.03692481861024258	-0.007019707169109894	-0.2039986450550263	-0.04217550867589858	0.02455191864829705	0.09528862166207427	-46.26831146619287	-7.599876937847482	6.630575154583309	3.633469167170124	-529.1280914111218	-70.08577124973125	-31.94769605651757	0.06769150107538691	0.1422993080082596	-0.3469555291493259	-0.3984254065604665	0.5563744991306099	-0.09553133978813148	0.7840641360559141	-1.014341654505068	-1.01434165450364	0.01990160391837356	0.08263350238105642	-0.4620975204921348	0.4291993093738156	7.09935665546576e-08	1.072020318308311e-06	-8.471440231493188e-08	2.253622344674514e-07	1.837912287641859e-08	5.392296185649684e-07	9.961337481994179e-08
1.52	-0.159743835969599	0.08573978791102048	0.8253299962874994	0.6169542012364945	-0.4393158573672178	-0.2938727717588343	-0.188913009462951	0.6440655325571785	0.6440655325571888	-0.1724560729635279	-0.1565285365043427	0.2218129944460187	0.03212084789206504	0.1375259516204563	0.05648969148966985	0.2921969883348564	-1.223614627950183	0.2742933985764076	-0.6541920914898908	0.3669722496641872	-1.687795200799141	-1.687795200799127	-0.008589233184794737	0.08471424533246932	-0.7125049935909537	-0.08295196355407229	-0.06750440876228593	0.03528509836719892	-0.006993477188496856	-0.2013267292545758	-0.03956394012963224	0.02406174396523591	0.09288934426899201	-45.36022143466322	-7.565053488972897	6.646794065374976	3.36882240150301	-527.2185644986724	-70.10420503508114	-32.66301010181286	0.06267362552397432	0.13604202004875	-0.382220449352709	-0.2881476002362768	0.5496731874837871	0.00233801615368099	0.746977705885864	-0.8740788142000678	-0.8740788142000865	0.01906445171792595	0.1171929793429318	-0.398746438910179	0.4503034917640711	5.270689986877205e-08	1.114721723210811e-06	-1.523363042396293e-08	2.399916827996983e-07	-3.516692612017667e-09	5.165044420478722e-07	9.344364227560962e-08
1.53	-0.1583656495967173	0.08631140181913172	0.8282322348397783	0.6047054304983226	-0.4365460225313084	-0.3004151610977301	-0.1852064097126799	0.6271465112881097	0.6271465112881438	-0.1725409141664917	-0.1556773992322858	0.2146689618300867	0.03131354713964646	0.1380990063548043	0.05782250154679465	0.2881942626573026	-1.225957797030562	0.2796437423740968	-0.6541923357695982	0.3742874134830806	-1.695761731464488	-1.695761731464497	-0.008380271479477029	0.08549374227966736	-0.7161965824292884	-0.07849621895008521	-0.06485067534258412	0.03356061105688671	-0.007007422222897413	-0.1987179283019553	-0.03678581933128224	0.02350948216618429	0.09044331648274138	-44.40204273606903	-7.508470529576618	6.655471038927515	3.076662039257373	-525.3276617706144	-70.09086608266566	-33.36402875990216	0.05274198339085131	0.1303638691187673	-0.4177738125243952	-0.1801785873091035	0.5231088651780387	0.01288463529749728	0.714742683756331	-0.7208589546419623	-0.7208589546453466	0.02180633940010984	0.05541901173616743	-0.3385853675900793	0.4448108796761037	3.576234960142691e-08	1.151381707357895e-06	4.454067536809311e-08	2.519106972256218e-07	-2.163200976167063e-08	4.94012727179723e-07	8.792589511358112e-08
1.54	-0.1569821085592946	0.08689603650192898	0.8310927510981678	0.5924386726642726	-0.433723605479569	-0.3069547348223571	-0.1814284669314466	0.6101552409600035	0.6101552409600538	-0.172623666890507	-0.1548190487988919	0.207491169273512	0.03055112402025973	0.1385968845291868	0.0590938464268822	0.2838525295570404	-1.227212047125754	0.2848098417424501	-0.6536289686360862	0.3812408558565903	-1.702245012607432	-1.702245012607464	-0.008171537395702051	0.08615687759998555	-0.7192569817194203	-0.07397643694769394	-0.06219694192286611	0.03183612374657098	-0.007021367257286542	-0.1961091273493357	-0.03400769853293485	0.02295722036712641	0.0879972886965083	-43.4517051455844	-7.451378377366201	6.665053917488786	2.7841667120562	-523.5682415944609	-70.10833741269556	-34.04722816798972	0.04763831353079544	0.1237489846413446	-0.4500219338943862	-0.07036380319883472	0.5128243016166165	0.1150602987976002	0.6746334168091019	-0.5774289097194222	-0.5774289097194024	0.01901892740934384	0.09392065396697782	-0.2725085292695494	0.4631109714449269	2.949599642965456e-08	1.173076970744304e-06	5.38149728361994e-08	2.567918424624749e-07	-2.490865258097405e-08	4.90827150340881e-07	8.786984095353534e-08
1.55	-0.1555939441619056	0.08749305569183505	0.8339082026144791	0.5801647928413273	-0.4308505450505299	-0.3134857597542132	-0.1775829410403715	0.5931066166483432	0.5931066166483434	-0.1727045228303326	-0.1539546088988112	0.2002859459929598	0.02983411593962567	0.1390226005856404	0.06029692922606804	0.2791854886741355	-1.227375955299617	0.2897651306105893	-0.6524826550833691	0.3877927397851985	-1.707219432482481	-1.707219432482525	-0.008001185424672539	0.08670930561874624	-0.7216777755857087	-0.0694185400153142	-0.05943389790528776	0.02989704407579157	-0.007079642928425832	-0.1935882021938897	-0.03108746461580814	0.02241561687684614	0.08546144332706164	-42.45573766666386	-7.407720597097188	6.677710131041289	2.473813620787324	-521.8023183093553	-70.18177908951947	-34.70893950114823	0.03799792913860864	0.1166789326468478	-0.4828886022981719	0.03875582252404332	0.4811925322950695	0.1285068139289111	0.6347284948028069	-0.4184054544159381	-0.4184054544178287	0.01599312589593815	0.03262375825379554	-0.2103433329029704	0.4529409062520143	3.553278338973717e-08	1.177530273254282e-06	4.904478104975442e-09	2.53564138416269e-07	-1.108856193270177e-08	5.098856021010223e-07	9.410660699142586e-08
1.56	-0.1542019306684671	0.08810172391075083	0.8366754150345991	0.5678949059660446	-0.4279290694622329	-0.3200025035644581	-0.1736740437872268	0.5760160567523313	0.5760160567522765	-0.1727836852916548	-0.1530853007420615	0.1930598190702256	0.02916284919873897	0.1393667037395418	0.06142365222882228	0.2742047103188417	-1.226413457593319	0.2944928735940285	-0.650772744313845	0.3939151282704587	-1.710632129478266	-1.710632129478323	-0.007832841695794212	0.0871305289344373	-0.7234377101557755	-0.0648281689982325	-0.05667085388768897	0.02795796440501268	-0.007137918599539337	-0.1910672770384448	-0.02816723069868222	0.02187401338656578	0.08292559795763389	-41.46723182541655	-7.363196649302734	6.690731788345104	2.161204361230447	-520.1631155502072	-70.28618434764353	-35.34543268049056	0.03131573302029373	0.1084770253550715	-0.5127694283721362	0.1549173728331461	0.4673151246766075	0.2277797421590002	0.5887343281394798	-0.2650843338668882	-0.2650843338668817	0.01861727897907162	0.0676797133530677	-0.1403366700251702	0.4696057883853389	3.305714725522662e-08	1.184916240429956e-06	-8.517209827037652e-09	2.538123234388341e-07	-8.924739873014323e-09	5.111161136406835e-07	9.583735495171111e-08
1.57	-0.1528069428331141	0.08872126895103399	0.8393913041229361	0.5556403447254167	-0.4249614864283902	-0.3264994188483398	-0.1697060420425807	0.5588992687267906	0.558899268726759	-0.1728611212135698	-0.1522124880118819	0.1858194514998552	0.02853765881073063	0.1396163475726628	0.06247153000465334	0.2689269794354283	-1.224311799284533	0.2989807759416398	-0.6485151330211435	0.3996109392178085	-1.712460803711037	-1.712460803711041	-0.007657933993686099	0.08741319323844123	-0.7245225273015806	-0.06020741039864264	-0.05387151985715719	0.02597710820251524	-0.007235532937468316	-0.1885912515178462	-0.02511725369650548	0.02125766698677973	0.08037120807406006	-40.443453555452	-7.288110864952303	6.693995140485169	1.833899275794987	-518.5854683960791	-70.34353515286801	-35.95290759321954	0.01957572717617711	0.1009214903385486	-0.5421998001786497	0.2657996209382125	0.4329483411234657	0.2391068167388836	0.5488622617921888	-0.1020761180015703	-0.1020761179936568	0.01657810448149312	0.005732439636792049	-0.07552855844210098	0.4584911701426998	1.994098225247473e-08	1.195968038437749e-06	2.242211073996239e-08	2.584053697973629e-07	-2.133125354905777e-08	4.900616999047453e-07	9.193558031498984e-08
1.58	-0.1514099011556881	0.08935088843640362	0.8420530309260682	0.5434124019800848	-0.4219503402608067	-0.3329708870205116	-0.1656833106317093	0.5417721305289195	0.5417721305289095	-0.17293687794073	-0.151337414108525	0.17857164089371	0.02795871206359769	0.1397774721545184	0.06343854124611964	0.2633722532779009	-1.221089758534274	0.3032055003420524	-0.6456833219719141	0.4048610615155431	-1.712702163944582	-1.712702163944533	-0.007497002745382847	0.08758276357095766	-0.7249263173107413	-0.05557944082317556	-0.05107218582660043	0.02399625200002468	-0.0073331472753608	-0.1861152259972469	-0.02206727669432615	0.02064132058700353	0.07781681819050447	-39.42784892221223	-7.21198039820931	6.697534023136308	1.506407722240225	-517.1453745707736	-70.43214386508099	-36.52759328835603	0.01361188276713369	0.0923037184821697	-0.5681684831949252	0.3789938611276002	0.4146795352368532	0.3426196934646334	0.4995965982163692	0.05237846597839258	0.05237846597839041	0.01582198821806502	0.04506091905558709	-0.004131242696223298	0.4710479835608066	1.221453077212732e-08	1.20088762505687e-06	3.393421501184049e-08	2.592102115036904e-07	-2.332164247006476e-08	4.779874277291029e-07	8.996536434268545e-08
